Patient4_TMGait_0pt8_01_left_18_EMG.mot
version=1
nRows=23
nColumns=33
inDegrees=no
endheader
time	1LAddLong	2LGlutMax	3LGlutMed	4LIliopsoas	5LSemiMemb	6LBicFemLong	7LRecFem	8LVastMed	9LVastLat	10LGasMed	11LTibAnt	12lTibPost	13LPeroneusLong	14LSol	15LExtDigLong	16LFlexDigLong	17RAddLong	18RGlutMax	19RGlutMed	20RIliopsoas	21RSemiMemb	22RBicFemLong	23RRecFem	24RVastMed	25RVastLat	26RGasMed	27RTibAnt	28RTibPost	29RPeroneusLong	30RSol	31RExtDigLong	32RFlexDigLong
19.802	0.011444	1.4113	-0.11673	0.001068	0.079346	-0.19653	0.31281	0.003967	-0.31403	0.19028	-0.027313	-0.085907	1.0011	0.098572	0.071564	-0.011444	-0.02243	-0.29053	-0.18051	0.026855	-0.19211	-0.10956	0.90546	-0.10635	-0.039215	-0.017242	0.3038	0	-0.088806	0.14084	-0.002289	-0.023193
19.803	0.023804	1.4149	0.13748	0.005646	0.040131	-0.0383	0.27817	0.001984	-0.27222	0.17822	-0.035858	-0.06958	0.75592	-0.016937	0.058746	-0.029755	-0.004425	-0.32181	0.27176	-0.055237	-0.1651	-0.039978	0.89325	-0.10178	-0.039978	-0.008392	0.5043	-0.011139	-0.17197	0.040436	0.001373	-0.03479
19.804	0.017548	1.364	-0.040588	0.016937	0.062103	0.09903	0.21713	0.015106	-0.20767	-0.058594	-0.084229	-0.043335	-0.83588	-0.046844	0.046539	0.19119	0.03479	-0.3157	0.33707	-0.084076	-0.12009	-0.00351	0.88333	-0.034485	-0.006409	-0.005493	0.2301	-0.005341	-0.097198	-0.040588	0.000763	-0.03479
19.805	0.00824	1.2589	-0.015564	0.014038	0.026398	0.20401	0.12787	0.016785	-0.16266	-0.23254	0.021667	0.24292	-0.34256	-0.17242	-0.038452	0.052338	0.076447	-0.37857	-0.13107	-0.070038	-0.071869	0.078735	0.85648	0.038452	-0.012207	0.000763	-0.17746	-0.004425	-0.036469	-0.054321	-0.002136	-0.033722
19.806	-0.002899	1.1702	0.10452	0.021667	-0.024872	-0.20004	0.090027	0.015869	-0.19363	-0.50278	-0.066986	-0.046234	0.63049	-0.37293	0.022736	-0.055237	0.083771	-0.39688	-0.47455	-0.075989	0.019226	0.1564	0.89996	0.039825	-0.026703	0.007019	-0.86441	-0.007629	0.10101	-0.084839	-0.00412	-0.033722
19.807	-0.002899	0.93521	0.14679	-0.005493	-0.037537	-0.50522	0.03952	0.033875	-0.40894	-0.53451	-0.022278	-0.27741	0.63355	-0.73822	0.078888	0.022888	0.054321	-0.45548	-0.66513	-0.10498	0.070343	0.084991	0.86411	0.019684	-0.042267	0.01297	-0.59555	-0.004425	0.066681	-0.085907	0.000916	-0.029297
19.808	0.007782	0.71075	0.082092	0.005188	-0.10956	-0.24323	0.013275	0.043182	-0.61966	-0.35461	0.007477	-0.070953	-0.097046	-0.67856	0.017395	0.062103	0.009155	-0.54977	-0.53787	0.036316	0.027466	-0.031891	0.88486	-0.13718	-0.045624	0.006714	0.271	-0.003204	-0.097046	-0.024872	-0.002594	-0.032501
19.809	0.019226	0.57678	0.041962	-0.001984	-0.11871	-0.15686	-0.14053	0.039215	-0.62897	-0.22568	0.038605	-0.074921	-0.57587	-0.3241	-0.077515	0.070953	0.067902	-0.64697	-0.44357	0.15915	-0.003815	-0.10529	0.91309	-0.16235	-0.078583	-0.004883	0.34531	-0.000305	-0.12054	-0.019836	-0.001831	-0.033417
19.81	0.029449	0.45532	-0.01236	0.005646	-0.098114	-0.1648	-0.12054	0.027466	-0.55618	-0.16022	0.039215	-0.059814	-0.31952	0.11475	-0.097351	0.041199	0.14572	-0.71716	-0.43167	0.14648	0.005341	-0.051727	0.93002	-0.20126	-0.06073	-0.003967	0.12177	-0.002747	-0.10941	-0.06897	-0.000458	-0.035858
19.811	0.023041	0.30975	0.085297	-0.009308	-0.011902	-0.066833	-0.14252	0.015869	-0.58655	-0.13092	0.006561	-0.050201	0.38818	0.15335	-0.023499	0.03418	0.14038	-0.80521	-0.39215	0.13275	-0.029602	0.006256	0.92682	-0.168	-0.088348	-0.006256	-0.17853	-0.002136	-0.1149	-0.063019	0.00946	-0.028992
19.812	0.027161	0.25085	-0.001068	0.007477	0.06897	-0.08255	-0.22751	-0.008545	-0.41504	-0.046234	0.014801	-0.026093	-0.37949	0.070496	0.04837	0.033569	0.061951	-0.85693	-0.17731	0.03891	-0.10483	0.001373	0.91538	-0.15518	-0.07431	-0.011902	-0.24368	-0.002136	-0.079803	-0.017853	-0.001984	-0.035858
19.813	0.031281	0.22095	-0.094757	-0.001831	0.055695	-0.13626	-0.24612	0.000153	-0.17258	-0.022888	0.025635	-0.004272	-0.34882	-0.14954	-0.095673	0.015259	0.046387	-0.86716	0.068512	-0.098114	-0.12512	0.013275	0.97549	-0.16953	-0.095367	-0.007019	-0.30746	-0.002899	-0.011444	0.001831	-0.004883	-0.034332
19.814	0.019531	0.31525	-0.031891	-0.024414	-0.046692	0.11276	-0.23789	-0.002747	0.006256	0.0354	0.011292	-0.012665	-0.10941	-0.18951	-0.15762	-0.012665	0.007172	-0.84442	0.033875	-0.11841	-0.059357	0.10986	0.99579	-0.1178	-0.10498	0.002289	-0.17151	-0.007324	0.066986	-0.026398	-0.002747	-0.024414
19.815	0.024567	0.32562	-0.020447	0.003967	-0.086365	0.15671	-0.23941	-0.00946	0.050354	-0.055237	0.009766	-0.0737	0.036621	-0.094452	-0.029144	-0.021667	-0.054932	-0.80383	-0.11307	-0.17456	-0.03418	0.22492	0.94467	-0.11185	-0.091705	-0.002594	0.037689	0.000305	0.092621	-0.051422	-0.003204	-0.033417
19.816	0.024872	0.30563	-0.011444	0.026703	-0.11566	0.31601	-0.28305	-0.008545	0.009918	-0.069122	0.020752	0.013733	-0.072784	-0.067596	0.056763	-0.031281	0.019531	-0.72952	-0.36057	-0.19134	-0.014343	0.13733	0.97626	-0.11002	-0.091858	-0.001373	0.23514	-0.002136	-0.015717	-0.02594	-0.003052	-0.038605
19.817	0.033569	0.27206	-0.11566	0.017395	-0.077057	0.28854	-0.30289	-0.010986	0.00351	-0.014648	0.014648	0.027008	-0.078583	0.14648	0.058289	-0.053711	0.025482	-0.74677	-0.56442	-0.22705	-0.056915	-0.000153	0.93506	-0.13489	-0.10696	-0.007935	0.4686	-0.007629	-0.13519	-0.090179	-0.004578	-0.039673
19.818	0.032654	0.16647	-0.10284	0.007629	-0.052643	0.2005	-0.25726	0.003052	-0.012817	-0.018921	-0.014343	0.045776	0.013428	0.50888	0.03006	-0.016022	-0.041809	-0.74509	-0.63339	-0.25955	-0.04776	-0.024109	0.87524	-0.19363	-0.10162	-0.011597	0.52887	0.001068	-0.24292	-0.14084	-0.003967	-0.0383
19.819	0.027618	0.10513	-0.051575	0.023193	-0.053253	-0.1001	-0.28214	0.00824	-0.014191	-0.10971	-0.014343	0.079346	0.08194	0.61142	0.016937	0.103	-0.016022	-0.79865	-0.7016	-0.21011	-0.070038	0.046844	0.82184	-0.13763	-0.088348	-0.000763	0.4129	-0.00061	-0.28183	-0.17425	0.000153	-0.036926
19.82	0.014648	0.059662	-0.12665	0.021362	-0.092621	-0.26245	-0.224	-0.00061	-0.098572	-0.2063	-0.010071	0.11292	0.10407	0.39887	0.009766	0.071716	0.014954	-0.87845	-0.50384	-0.077515	-0.02121	0.12756	0.811	0.089569	-0.07309	-0.001831	-0.067291	-0.001678	-0.17883	-0.17303	-0.005951	-0.045624
19.821	0.010986	0.017395	-0.27206	0.008087	-0.18372	-0.10773	-0.16007	0.009308	-0.31067	-0.14465	0.006256	0.25574	0.079193	0.20416	-0.013123	0.016785	0.029602	-0.92438	-0.45776	0.11902	0.003815	0.15442	0.77225	0.15167	-0.051117	-0.001678	-0.61584	0.001068	0.01358	-0.16144	-0.00351	-0.045471
19.822	-0.009308	-0.077362	-0.27252	-0.007324	-0.15762	-0.056	-0.18478	0.008392	-0.38544	-0.14175	0.007172	0.11932	0.10941	-0.16708	-0.020905	-0.003815	0.068817	-0.89218	-0.87433	0.21835	-0.004272	0.12436	0.70435	0.2063	-0.027618	0.003052	-0.49103	-0.003815	0.17822	-0.09201	-0.002136	-0.043793
19.823	-0.008545	-0.12238	-0.082703	-0.00946	-0.086823	-0.028534	-0.30914	0.005341	-0.23254	0.063782	0.001373	-0.073395	0.13641	-0.32761	-0.01709	-0.24704	0.031586	-0.85541	-0.94986	0.20401	-0.020599	0.037231	0.70038	0.15595	-0.048828	0.002747	-0.062714	-0.00473	0.16983	-0.048065	-0.000763	-0.033722
19.824	0.015564	-0.093231	0.005035	0.018616	-0.068665	0.011902	-0.38223	0.009155	-0.10178	0.13702	0.001526	0.20645	0.093079	-0.47577	-0.005798	0.028687	-0.013733	-0.7518	-0.72464	0.19928	-0.01358	0.063171	0.75073	0.084534	-0.061951	0	0.11231	-0.002289	0.058441	-0.022888	-0.001068	-0.036621
